<?xml version="1.0" standalone="no"?>
<!DOCTYPE svg PUBLIC "-//W3C//DTD SVG 1.1//EN" "http://www.w3.org/Graphics/SVG/1.1/DTD/svg11.dtd" >
<svg xmlns="http://www.w3.org/2000/svg">
<metadata>
This is a custom SVG webfont generated by Font Squirrel.
Copyright   : c 2002 Typodermic Fonts All rights reserved This font is freeware Read attached text file for details Updated in 2008 Have a look at the rest of the Neuropol X family  Neuropol Nova at Typodermiccom
Designer    : Ray Larabie
Foundry     : Ray Larabie
Foundry URL : httpwwwtypodermiccom
</metadata>
<defs>
<font id="NeuropolXFree" horiz-adv-x="1857" >
<font-face units-per-em="2048" ascent="1638" descent="-410" />
<missing-glyph horiz-adv-x="727" />
<glyph unicode=" "  horiz-adv-x="727" />
<glyph unicode="&#x09;" horiz-adv-x="727" />
<glyph unicode="&#xa0;" horiz-adv-x="727" />
<glyph unicode="!" horiz-adv-x="552" d="M150 102q0 94 122 95q131 0 131 -95q0 -100 -131 -100q-122 0 -122 100zM176 375v862q0 80 96 80q100 0 101 -80v-862q0 -80 -101 -80q-96 0 -96 80z" />
<glyph unicode="&#x22;" horiz-adv-x="630" d="M82 920v325q0 80 90 80t90 -80v-325q0 -82 -90 -82t-90 82zM369 920v325q0 80 90 80t90 -80v-325q0 -82 -90 -82t-90 82z" />
<glyph unicode="#" horiz-adv-x="1484" d="M35 481q0 74 71 74h222l63 195h-198q-72 0 -72 86q0 72 72 71h243l107 342q8 27 30.5 39t44.5 12q20 0 41 -7t38.5 -19t28.5 -27.5t11 -34.5q0 -4 -1 -8l-3 -12l-88 -285h383l109 342q16 53 73 54q41 0 78 -28t37 -65q0 -14 -6 -20l-82 -283h137q74 0 74 -71 q0 -86 -74 -86h-186l-62 -195h160q72 0 72 -74q0 -80 -72 -80h-213l-102 -338q-10 -29 -29.5 -40t-46.5 -11q-41 0 -76 27t-35 67q0 18 2 21l86 274h-389l-102 -338q-10 -29 -30.5 -40t-43.5 -11q-41 0 -77.5 28t-36.5 66q0 20 2 23l86 272h-175q-71 0 -71 80zM535 555h387 l61 195h-387z" />
<glyph unicode="$" horiz-adv-x="1589" d="M80 82q0 74 72 74h542v438h-96q-512 0 -512 309v72q0 332 449 332h159v28q0 86 101 86q92 0 92 -86v-590h80q541 0 540 -329v-103q0 -313 -491 -313h-129v-51q0 -76 -96 -76t-97 76v51h-542q-72 0 -72 82zM274 877q0 -131 281 -132h139v408h-196q-223 0 -224 -152v-124z M887 156h162q268 0 268 135v151q0 152 -320 152h-110v-438z" />
<glyph unicode="%" horiz-adv-x="1994" d="M78 907v142q0 258 389 258h55q373 0 373 -256v-144q0 -250 -373 -250h-63q-381 0 -381 250zM248 903q0 -102 188 -102h117q162 0 162 102v170q0 88 -164 88h-115q-188 0 -188 -108v-150zM379 84q0 12 5 26.5t15 24.5l1074 1198q23 29 55 29q41 0 74.5 -34t33.5 -71 q0 -33 -18 -51l-1073 -1198q-10 -16 -26.5 -21t-33.5 -5q-39 0 -72.5 29.5t-33.5 72.5zM1096 248v145q0 258 391 258h55q369 0 369 -256v-147q0 -248 -369 -248h-63q-383 0 -383 248zM1264 248q0 -98 190 -98h119q162 0 162 98v166q0 92 -166 92h-117q-188 0 -188 -109v-149 z" />
<glyph unicode="&#x26;" horiz-adv-x="1839" d="M109 291v55q0 70 22.5 119t68.5 88t117.5 71.5t171.5 69.5l-137 84q-53 33 -78.5 87.5t-25.5 123.5v39q0 279 442 279h238q422 0 422 -277v-37q0 -98 -43 -158.5t-148 -95.5l-280 -92l551 -336q41 88 40 189v106q0 80 91 80q96 0 96 -78v-104q0 -182 -70 -289l129 -76 q23 -14 31 -28.5t8 -30.5q0 -35 -26.5 -62.5t-61.5 -27.5q-25 0 -45 18l-149 88q-139 -96 -394 -96h-444q-526 0 -526 291zM303 268q0 -113 301 -112h512q123 0 195 39l-635 389l-47 -17q-174 -53 -250 -100t-76 -94v-105zM436 967q0 -49 78 -97l180 -110l385 127 q76 25 76 78v79q0 109 -201 109h-303q-215 0 -215 -100v-86z" />
<glyph unicode="'" horiz-adv-x="344" d="M82 920v325q0 80 90 80t90 -80v-325q0 -82 -88 -82q-92 0 -92 82z" />
<glyph unicode="(" horiz-adv-x="649" d="M186 147v1039q0 246 303 246h37q72 0 72 -78q0 -82 -72 -82q-143 0 -143 -86v-1034q0 -117 143 -117q72 0 72 -78q0 -80 -72 -80h-24q-316 0 -316 270z" />
<glyph unicode=")" horiz-adv-x="649" d="M53 -43q0 78 72 78q143 0 143 117v1034q0 86 -141 86q-74 0 -74 82q0 78 74 78h33q301 0 301 -246v-1039q0 -270 -311 -270h-23q-74 0 -74 80z" />
<glyph unicode="*" horiz-adv-x="1054" d="M106 801q0 49 54 71l229 64l80 18l-80 15l-229 69q-49 14 -49 72q0 25 10 50.5t27.5 47t38 34.5t42.5 13q23 0 45 -22l170 -162l58 -65l-31 67q-29 123 -40 180.5t-13 65.5q0 47 34.5 67.5t82.5 20.5q47 0 80.5 -20.5t33.5 -55.5q0 -4 -1 -10t-1 -14l-55 -224l-29 -77 l51 61l170 160q23 23 43 22q25 0 46.5 -13t39 -34.5t27.5 -48.5t10 -53q0 -23 -10 -41.5t-37 -28.5l-231 -63l-76 -13l74 -10l229 -72q25 -8 38 -27.5t13 -43.5q0 -29 -11 -54.5t-29.5 -46t-42 -33t-46.5 -12.5q-16 0 -35 19l-172 164l-51 63l29 -82l55 -235v-23 q0 -35 -32.5 -51t-73.5 -16q-47 0 -87 18t-40 57v11q0 -2 4 10l53 227l31 84l-51 -63l-177 -164q-23 -18 -47 -19q-20 0 -41.5 13.5t-39 35t-29 47t-11.5 50.5z" />
<glyph unicode="+" horiz-adv-x="841" d="M59 653q0 74 70 74h195v131q0 78 94 78q92 0 92 -78v-131h207q66 0 65 -74q0 -78 -65 -78h-207v-135q0 -78 -86 -78q-96 0 -96 78v135h-199q-70 0 -70 78z" />
<glyph unicode="," horiz-adv-x="352" d="M53 -125q0 2 1 3t1 5l60 320q8 41 40.5 64.5t67.5 23.5q39 0 62.5 -20.5t23.5 -55.5q0 -16 -2 -20l-80 -316q-12 -39 -40.5 -57.5t-57.5 -18.5q-35 0 -55.5 21.5t-20.5 50.5z" />
<glyph unicode="-" horiz-adv-x="882" d="M25 543q0 74 77 73h689q68 0 67 -69q0 -74 -67 -74h-689q-77 0 -77 70z" />
<glyph unicode="." horiz-adv-x="436" d="M94 102q0 94 125 95q125 0 125 -95q0 -100 -125 -100t-125 100z" />
<glyph unicode="/" horiz-adv-x="1386" d="M27 66q0 16 7 28t21 31l1141 1178q27 27 64 26q35 0 67.5 -25.5t32.5 -62.5q0 -35 -29 -63l-1161 -1180q-29 -23 -49 -23q-35 0 -64.5 28t-29.5 63z" />
<glyph unicode="0" horiz-adv-x="1740" d="M113 356v564q0 387 534 387h453q528 0 528 -387v-531q0 -389 -530 -389h-455q-530 0 -530 356zM307 332q0 -176 285 -176h557q283 0 283 178v610q0 209 -283 209h-557q-285 0 -285 -209v-612z" />
<glyph unicode="1" horiz-adv-x="456" d="M131 74v1163q0 80 94 80q100 0 101 -80v-1163q0 -84 -101 -84q-94 0 -94 84z" />
<glyph unicode="2" horiz-adv-x="1810" d="M109 66v350q0 311 540 311h623q248 0 248 145v136q0 145 -234 145h-328q-78 0 -77 78q0 76 77 76h302q457 0 456 -324v-84q0 -330 -467 -330h-633q-315 0 -315 -149v-264h1344q72 0 71 -76q0 -80 -71 -80h-1473q-63 0 -63 66z" />
<glyph unicode="3" horiz-adv-x="1632" d="M74 666q0 80 82 79h893q287 0 286 144v125q0 139 -291 139h-253q-80 0 -80 78q0 76 80 76h200q545 0 545 -301v-76q0 -186 -207 -254q207 -66 207 -264v-76q0 -336 -530 -336h-850q-80 0 -80 80q0 76 80 76h884q295 0 295 168v129q-12 133 -286 133h-893q-82 0 -82 80z " />
<glyph unicode="4" horiz-adv-x="1835" d="M113 451v786q0 80 98 80q94 0 94 -80v-705h1204v705q0 80 97 80q98 0 98 -80v-1163q0 -84 -98 -84q-96 0 -97 84v268h-1294q-102 0 -102 109z" />
<glyph unicode="5" d="M98 80q0 76 76 76h1030q350 0 350 161v197q0 180 -282 180h-1098q-61 0 -61 64v487q0 61 61 62h770q78 0 78 -76q0 -78 -78 -78h-639v-305h932q512 0 512 -334v-197q0 -317 -559 -317h-1016q-76 0 -76 80z" />
<glyph unicode="6" horiz-adv-x="1875" d="M113 311v674q0 322 624 322h183q78 0 77 -76q0 -78 -77 -78h-267q-344 0 -344 -192v-105h920q549 0 549 -328v-211q0 -317 -504 -317h-621q-540 0 -540 311zM309 342q0 -186 316 -186h682q279 0 278 163v205q0 172 -321 172h-955v-354z" />
<glyph unicode="7" horiz-adv-x="1681" d="M35 1237q0 70 76 70h1413q59 0 85.5 -26t26.5 -64q-2 -18 -7 -38t-17 -36l-897 -1112q-27 -33 -62 -33q-37 0 -63.5 30.5t-26.5 65.5q0 27 25 58l803 1001h-1280q-76 0 -76 84z" />
<glyph unicode="8" horiz-adv-x="1865" d="M113 313v97q0 182 231 260q-207 66 -207 217v100q0 319 533 320h524q530 0 530 -322v-100q0 -147 -202 -215q233 -72 233 -260v-91q0 -319 -530 -319h-584q-528 0 -528 313zM303 283q0 -127 305 -127h647q303 0 304 129v147q0 154 -304 154h-647q-305 0 -305 -154v-149z M332 872q0 -125 268 -124h657q276 0 277 124v142q0 139 -277 139h-649q-276 0 -276 -139v-142z" />
<glyph unicode="9" horiz-adv-x="1773" d="M98 780v215q0 311 504 312h524q535 0 535 -369v-612q0 -326 -512 -326h-227q-84 0 -84 80q0 76 84 76h192q358 0 359 186v113h-824q-551 -1 -551 325zM295 784q0 -168 321 -168h857v351q0 186 -312 186h-602q-264 0 -264 -164v-205z" />
<glyph unicode=":" horiz-adv-x="436" d="M94 106q0 94 121 95q129 0 129 -95q0 -96 -125 -96t-125 96zM94 625q0 96 121 96q129 0 129 -96t-125 -97q-125 1 -125 97z" />
<glyph unicode=";" horiz-adv-x="401" d="M53 -127q0 8 2 10l58 320q10 41 42.5 64.5t67.5 23.5q39 0 63.5 -18.5t24.5 -53.5v-14q0 -6 -4 -10l-80 -316q-10 -39 -39.5 -57.5t-58.5 -18.5q-33 0 -54.5 21.5t-21.5 48.5zM86 623q0 96 123 96q127 0 127 -96q0 -98 -125 -99q-125 1 -125 99z" />
<glyph unicode="&#x3c;" horiz-adv-x="940" d="M59 578q0 55 52 73l622 295q18 10 43 10q45 0 71.5 -27.5t26.5 -62.5q0 -47 -57 -73l-475 -218l481 -223q29 -10 43.5 -31.5t14.5 -44.5q0 -41 -26 -69.5t-67 -28.5q-10 0 -20 2t-25 10l-634 314q-25 12 -37.5 28.5t-12.5 45.5z" />
<glyph unicode="=" horiz-adv-x="960" d="M59 420q0 68 72 67h692q66 0 66 -71q0 -72 -66 -72h-692q-72 0 -72 76zM59 752q0 68 72 67h692q78 0 78 -76q0 -68 -78 -67h-692q-72 0 -72 76z" />
<glyph unicode="&#x3e;" horiz-adv-x="940" d="M59 868q0 35 27 66t64 31q25 -4 45 -13l639 -313q47 -25 47 -76q0 -53 -47 -76l-629 -292q-18 -12 -45 -13q-37 0 -64.5 29t-27.5 63q0 51 55 72l477 221l-483 221q-58 21 -58 80z" />
<glyph unicode="?" horiz-adv-x="1171" d="M80 106q0 94 121 95q131 0 131 -95q0 -96 -131 -96q-121 0 -121 96zM119 395v41q0 244 301 244h196q285 0 285 131v174q0 168 -285 168h-88q-72 0 -71 76q0 78 71 78h54q500 0 499 -346v-125q0 -311 -503 -312h-179q-98 0 -98 -86v-43q0 -94 -96 -94q-86 0 -86 94z" />
<glyph unicode="@" horiz-adv-x="1538" d="M113 301v725q0 281 352 281h635q326 0 325 -263v-489q0 -229 -243 -229h-430q-311 0 -312 209v233q0 209 308 209h251q57 0 58 -62v-428h123q66 0 65 68v520q0 78 -145 78h-633q-178 0 -182 -127l2 -725q0 -145 188 -145h117q80 0 80 -68q0 -88 -80 -88h-76 q-403 0 -403 301zM612 537q0 -49 136 -50h139v340h-146q-129 0 -129 -55v-235z" />
<glyph unicode="A" d="M37 80q0 23 14 49l750 1124q23 35 57.5 51.5t69.5 16.5q74 0 121 -68l755 -1124q12 -12 15.5 -25.5t3.5 -23.5q0 -41 -29 -63.5t-70 -22.5q-18 0 -40.5 10t-38.5 31l-215 321h-1004l-217 -323q-16 -23 -35.5 -33t-32.5 -10q-43 0 -73.5 24.5t-30.5 65.5zM530 514h791 l-391 627z" />
<glyph unicode="B" horiz-adv-x="1777" d="M131 66v1179q0 61 62 62h987q461 0 460 -334v-68q0 -178 -188 -250q231 -72 231 -272v-66q0 -317 -458 -317h-1032q-62 0 -62 66zM324 156h901q262 0 262 135v125q0 154 -320 153h-843v-413zM334 727h831q276 0 277 143v131q0 152 -258 152h-850v-426z" />
<glyph unicode="C" horiz-adv-x="1554" d="M113 328v671q0 307 514 308h755q72 0 72 -76q0 -78 -72 -78h-749q-328 0 -328 -154v-665q0 -178 361 -178h716q72 0 72 -76q0 -80 -72 -80h-743q-526 0 -526 328z" />
<glyph unicode="D" horiz-adv-x="1808" d="M131 66v1179q0 61 64 62h997q504 0 504 -322v-643q0 -342 -506 -342h-995q-64 0 -64 66zM328 156h856q319 0 319 186v643q0 168 -313 168h-862v-997z" />
<glyph unicode="E" horiz-adv-x="1636" d="M113 315v670q0 322 526 322h227q68 0 68 -78q0 -76 -68 -76h-153q-403 0 -404 -168v-258h1151q68 0 68 -80q0 -78 -68 -78h-1151v-245q0 -168 318 -168h833q72 0 72 -76q0 -80 -72 -80h-839q-508 0 -508 315z" />
<glyph unicode="F" horiz-adv-x="1566" d="M113 74v907q0 326 512 326h174q78 0 78 -72q0 -82 -78 -82h-154q-336 0 -336 -170v-256h1143q76 0 76 -76q0 -82 -76 -82h-1143v-495q0 -84 -96 -84q-100 0 -100 84z" />
<glyph unicode="G" horiz-adv-x="1783" d="M113 317v678q0 311 534 312h209q70 0 70 -76q0 -78 -70 -78h-149q-397 0 -398 -158v-678q0 -162 338 -161h527q289 0 288 157v351q0 78 99 77q98 0 98 -77v-345q0 -319 -485 -319h-531q-530 0 -530 317z" />
<glyph unicode="H" horiz-adv-x="1826" d="M131 74v1163q0 80 100 80q96 0 97 -80v-510h1175v510q0 80 92 80q100 0 101 -80v-1163q0 -84 -99 -84q-94 0 -94 84v495h-1175v-495q0 -84 -101 -84q-96 0 -96 84z" />
<glyph unicode="I" horiz-adv-x="495" d="M150 74v1163q0 80 102 80q94 0 94 -80v-1163q0 -82 -98 -82t-98 82z" />
<glyph unicode="J" horiz-adv-x="808" d="M0 80q0 76 80 76h110q299 0 299 206v875q0 80 99 80q98 0 98 -80v-862q0 -375 -496 -375h-110q-80 0 -80 80z" />
<glyph unicode="K" horiz-adv-x="1566" d="M154 74v1163q0 80 98 80q92 0 92 -80v-483l987 549q14 10 26.5 12t24.5 2q39 0 66 -26.5t27 -59.5q0 -16 -9.5 -34.5t-33.5 -31.5l-936 -497l968 -516q23 -12 35 -33t12 -39q0 -35 -24.5 -61.5t-59.5 -26.5q-20 0 -49 16l-1034 563v-497q0 -84 -94 -84q-96 0 -96 84z" />
<glyph unicode="L" horiz-adv-x="1579" d="M123 336v901q0 80 96 80q98 0 98 -80v-901q0 -180 402 -180h762q74 0 73 -82q0 -74 -73 -74h-754q-604 0 -604 336z" />
<glyph unicode="M" horiz-adv-x="2390" d="M131 74v1132q0 111 109 111q76 0 129 -68l835 -1067l819 1078q45 57 119 57q115 0 115 -115v-1128q0 -84 -100 -84q-92 0 -93 84v952l-731 -967q-51 -70 -131 -69q-86 0 -137 69l-743 965v-950q0 -84 -95 -84q-96 0 -96 84z" />
<glyph unicode="N" horiz-adv-x="1818" d="M131 74v1120q0 61 37 89t82 28q29 0 53.5 -7.5t46.5 -29.5l1145 -1012v975q0 80 98 80q92 0 93 -80v-1116q0 -66 -36 -98.5t-83 -32.5q-20 0 -44 8t-46 31l-1155 1032v-987q0 -84 -97 -84q-94 0 -94 84z" />
<glyph unicode="O" horiz-adv-x="1740" d="M113 340v627q0 340 575 340h363q578 0 577 -340v-625q0 -342 -577 -342h-363q-575 0 -575 340zM309 344q0 -188 338 -188h457q330 0 330 188v612q0 197 -318 197h-469q-338 0 -338 -197v-612z" />
<glyph unicode="P" horiz-adv-x="1781" d="M131 74v1171q0 61 64 62h974q524 0 525 -291v-228q0 -307 -531 -307h-835v-407q0 -84 -101 -84q-96 0 -96 84zM328 641h858q315 0 315 158v200q0 154 -303 154h-870v-512z" />
<glyph unicode="Q" horiz-adv-x="1779" d="M113 340v637q0 330 499 330h545q510 0 510 -328v-639q0 -221 -235 -303l100 -55q16 -10 27.5 -32t11.5 -38q0 -35 -26.5 -57.5t-61.5 -22.5q-20 0 -47 14l-273 160h-549q-501 0 -501 334zM309 336q0 -180 361 -180h520q283 0 283 178v647q0 172 -369 172h-434 q-360 0 -361 -172v-645z" />
<glyph unicode="R" horiz-adv-x="1773" d="M131 74v1171q0 61 64 62h944q543 0 542 -334v-142q0 -313 -497 -313h-477l825 -362q51 -25 51 -70q0 -35 -23.5 -65.5t-62.5 -30.5q-18 0 -37 12l-1132 528v-456q0 -84 -97 -84q-100 0 -100 84zM328 674h874q287 0 287 139v170q0 170 -322 170h-839v-479z" />
<glyph unicode="S" horiz-adv-x="1640" d="M86 82q0 74 72 74h895q268 0 268 155v113q0 170 -320 170h-395q-510 0 -510 274v131q0 307 447 308h217q74 0 74 -78q0 -76 -74 -76h-248q-221 0 -221 -166v-100q0 -141 284 -142h402q541 0 541 -305v-139q0 -301 -492 -301h-868q-72 0 -72 82z" />
<glyph unicode="T" horiz-adv-x="1439" d="M12 1235q0 72 72 72h1270q72 0 71 -72q0 -82 -71 -82h-537v-1079q0 -84 -98 -84q-96 0 -96 84v1079h-539q-72 0 -72 82z" />
<glyph unicode="U" horiz-adv-x="1792" d="M123 360v877q0 80 94 80q100 0 100 -80v-862q0 -219 385 -219h355q420 0 420 219v862q0 80 96 80t96 -80v-877q0 -360 -645 -360h-293q-608 0 -608 360z" />
<glyph unicode="V" horiz-adv-x="1851" d="M37 1229q0 37 29.5 61.5t68.5 24.5q18 -2 40 -11.5t38 -31.5l719 -1106l706 1104q31 45 80 45q39 0 69 -25.5t30 -62.5q-2 -10 -5.5 -23.5t-9.5 -23.5l-749 -1117q-23 -35 -56.5 -54t-68.5 -19q-78 0 -125 71l-748 1117q-18 24 -18 51z" />
<glyph unicode="W" horiz-adv-x="2451" d="M37 1229q0 39 31.5 62.5t70.5 23.5q59 0 80 -51l457 -1051l428 1014q18 43 52 63.5t75 20.5q35 0 66.5 -19.5t48.5 -54.5l438 -1024l444 1051q23 53 86 53q35 0 68 -25.5t33 -62.5q0 -16 -7 -37l-510 -1112q-16 -41 -49.5 -62.5t-72.5 -21.5q-35 0 -71 19.5t-52 60.5 l-420 995l-440 -999q-16 -35 -48 -55.5t-73 -20.5q-39 0 -72 20.5t-51 61.5l-508 1116q-2 8 -3 16.5t-1 18.5z" />
<glyph unicode="X" horiz-adv-x="1636" d="M59 1237q0 33 28 56.5t65 23.5q33 0 65 -27l596 -524l598 522q35 29 66 29q39 0 65.5 -24.5t26.5 -57.5t-33 -64l-592 -516l596 -516q31 -29 31 -61q0 -35 -25.5 -59.5t-64.5 -24.5q-33 0 -66 26l-602 519l-592 -516q-35 -29 -67 -29q-35 0 -64 25.5t-29 60.5q0 31 37 61 l588 514l-592 519q-35 28 -35 63z" />
<glyph unicode="Y" horiz-adv-x="1562" d="M37 1229q0 33 29.5 57.5t68.5 24.5q35 0 66 -25l579 -579l578 579q27 27 67 27q37 0 69 -25.5t32 -58.5q0 -12 -5 -26.5t-20 -26.5l-620 -623l-2 -481q-8 -82 -97 -82q-96 0 -96 84v479l-623 623q-26 26 -26 53z" />
<glyph unicode="Z" horiz-adv-x="1546" d="M53 106q0 18 8.5 37t26.5 35l1114 975h-1057q-70 0 -69 82q0 72 69 72h1241q41 0 67 -30t26 -65q0 -39 -29 -61l-1139 -995h1096q72 0 72 -76q0 -80 -72 -80h-1235q-53 0 -86 32.5t-33 73.5z" />
<glyph unicode="[" horiz-adv-x="591" d="M176 -57v1423q0 41 13.5 53.5t48.5 12.5h235q76 0 76 -76q0 -84 -76 -84h-119v-1237h115q80 0 80 -78q0 -80 -80 -80h-231q-29 0 -45.5 12.5t-16.5 53.5z" />
<glyph unicode="\" horiz-adv-x="1388" d="M27 1239q0 43 25.5 70.5t68.5 27.5q37 0 69 -32l1143 -1178q29 -29 29 -68q0 -35 -24.5 -60.5t-59.5 -25.5q-37 0 -64 31l-1157 1178q-30 30 -30 57z" />
<glyph unicode="]" horiz-adv-x="630" d="M53 -43q0 78 80 78h115v1237h-121q-74 0 -74 84q0 76 74 76h238q33 0 46 -12.5t13 -53.5v-1423q0 -41 -15.5 -53.5t-43.5 -12.5h-232q-80 0 -80 80z" />
<glyph unicode="^" horiz-adv-x="827" d="M61 1260q0 16 21 34l264 281q33 33 68 33q16 -2 33.5 -9.5t33.5 -23.5l264 -279q20 -20 21 -39q0 -29 -21.5 -47t-48.5 -18q-12 0 -26.5 6t-24.5 19l-231 241l-230 -241q-18 -25 -45 -25q-29 0 -53.5 20.5t-24.5 47.5z" />
<glyph unicode="_" horiz-adv-x="1517" d="M-33 -248q0 90 88 90h1403q86 0 86 -94q0 -96 -86 -96h-1403q-88 0 -88 100z" />
<glyph unicode="`" horiz-adv-x="454" d="M29 1446q0 23 18.5 43t40.5 20q27 0 49 -22l271 -287q18 -23 18 -45q0 -25 -18.5 -44t-40.5 -19q-12 0 -24.5 4t-25.5 18l-268 287q-20 20 -20 45z" />
<glyph unicode="a" horiz-adv-x="1617" d="M100 281v131q0 291 439 290h792q-18 147 -221 148h-221q-66 0 -66 78q0 72 66 71h192q426 0 426 -299v-407q0 -293 -426 -293h-532q-449 0 -449 281zM285 279q0 -127 227 -127h602q219 0 219 192v207h-835q-213 0 -213 -135v-137z" />
<glyph unicode="b" horiz-adv-x="1583" d="M123 301v936q0 80 90 80t90 -80v-238h670q500 0 500 -307v-383q0 -309 -500 -309h-336q-514 0 -514 301zM303 301q0 -150 299 -149h436q129 0 190.5 39.5t61.5 121.5v371q0 166 -286 166h-701v-549z" />
<glyph unicode="c" horiz-adv-x="1421" d="M113 295v412q0 293 448 292h670q84 0 84 -71q0 -78 -84 -78h-694q-242 0 -242 -139v-408q0 -152 278 -151h658q76 0 76 -80q0 -72 -76 -72h-625q-493 0 -493 295z" />
<glyph unicode="d" horiz-adv-x="1583" d="M113 274v420q0 305 499 305h670v238q0 80 88 80q92 0 92 -80v-944q0 -293 -510 -293h-340q-499 0 -499 274zM295 313q0 -162 266 -161h420q301 0 301 161v535h-709q-279 0 -278 -176v-359z" />
<glyph unicode="e" horiz-adv-x="1542" d="M113 309v385q0 305 501 305h410q424 0 424 -266v-239q0 -82 -82 -82h-1071v-125q0 -135 278 -135h199q78 0 78 -74q0 -78 -78 -78h-151q-508 0 -508 309zM295 567h977v148q0 135 -211 135h-488q-279 0 -278 -143v-140z" />
<glyph unicode="f" horiz-adv-x="753" d="M123 72v927q0 301 422 301h110q70 0 70 -73q0 -72 -68 -72h-151q-205 0 -207 -156h360q66 0 66 -71q0 -78 -66 -78h-360v-778q0 -82 -88 -82t-88 82z" />
<glyph unicode="g" horiz-adv-x="1566" d="M113 301v395q0 303 483 303h326q526 0 526 -305v-680q0 -299 -496 -299h-151q-80 0 -80 74t80 74h174q293 0 293 125v12h-625q-530 0 -530 301zM295 303q0 -152 311 -151h656v532q0 166 -289 166h-410q-268 0 -268 -150v-397z" />
<glyph unicode="h" horiz-adv-x="1587" d="M131 72v1165q0 80 90 80q92 0 92 -80v-238h607q547 0 546 -315v-612q0 -82 -92 -82t-92 82v608q0 170 -305 170h-664v-778q0 -82 -92 -82q-90 0 -90 82z" />
<glyph unicode="i" horiz-adv-x="456" d="M102 1143q0 96 119 96q127 0 127 -96q0 -94 -127 -94q-119 0 -119 94zM141 72v792q0 78 82 78q94 0 94 -78v-792q0 -82 -90 -82q-86 0 -86 82z" />
<glyph unicode="j" horiz-adv-x="520" d="M-238 -145q0 78 78 77h154q213 0 213 127v805q0 78 90 78q92 0 92 -78v-786q0 -295 -405 -295h-144q-78 0 -78 72zM174 1149q0 94 123 94t123 -94q0 -98 -123 -98t-123 98z" />
<glyph unicode="k" horiz-adv-x="1296" d="M131 72v1165q0 80 92 80q88 0 88 -80v-623l807 387q16 10 33 11q33 0 59.5 -27t26.5 -55q0 -16 -11.5 -33.5t-33.5 -28.5l-746 -352l750 -377q18 -10 29.5 -28.5t11.5 -30.5q0 -35 -27.5 -62.5t-62.5 -27.5q-18 0 -43 12l-793 410v-340q0 -82 -88 -82q-92 0 -92 82z" />
<glyph unicode="l" horiz-adv-x="442" d="M131 72v1165q0 80 90 80q92 0 92 -80v-1165q0 -82 -90 -82q-92 0 -92 82z" />
<glyph unicode="m" horiz-adv-x="2084" d="M123 72v612q0 315 479 315q356 0 447 -163q96 164 436 163q477 0 477 -315v-612q0 -82 -92 -82q-90 0 -90 82v635q0 143 -295 143q-350 0 -350 -170v-608q0 -82 -88 -82q-94 0 -95 82v608q0 170 -350 170q-299 0 -299 -143v-635q0 -82 -92 -82q-88 0 -88 82z" />
<glyph unicode="n" horiz-adv-x="1562" d="M123 72v655q0 272 481 272h352q485 0 486 -272v-655q0 -82 -92 -82t-93 82v655q0 123 -247 123h-457q-250 0 -250 -123v-655q0 -82 -90 -82t-90 82z" />
<glyph unicode="o" horiz-adv-x="1544" d="M113 303v387q0 309 487 309h361q471 0 471 -307v-389q0 -303 -471 -303h-367q-481 0 -481 303zM295 303q0 -152 278 -151h416q256 0 256 151v404q0 143 -256 143h-416q-279 0 -278 -160v-387z" />
<glyph unicode="p" horiz-adv-x="1566" d="M123 -225v936q0 289 479 288h350q504 0 504 -284v-414q0 -301 -455 -301h-698v-225q0 -84 -92 -84q-88 0 -88 84zM303 152h729q240 0 240 147v412q0 139 -291 139h-399q-279 0 -279 -143v-555z" />
<glyph unicode="q" horiz-adv-x="1566" d="M113 301v414q0 285 505 284h347q483 0 483 -288v-936q0 -84 -92 -84t-92 84v225h-701q-450 0 -450 301zM295 299q0 -147 237 -147h732v555q0 143 -275 143h-405q-289 0 -289 -139v-412z" />
<glyph unicode="r" horiz-adv-x="776" d="M123 72v624q0 303 461 303h84q68 0 67 -73q0 -76 -57 -76h-113q-260 0 -260 -154v-624q0 -82 -92 -82q-90 0 -90 82z" />
<glyph unicode="s" horiz-adv-x="1417" d="M96 74q0 78 80 78h805q164 0 164 114v60q0 111 -184 110h-431q-422 0 -421 254v66q0 244 401 243h213q80 0 80 -73q0 -76 -80 -76h-256q-178 0 -178 -94v-62q0 -111 211 -110h438q393 0 393 -258v-60q0 -266 -381 -266h-774q-80 0 -80 74z" />
<glyph unicode="t" horiz-adv-x="854" d="M35 928q0 72 76 71h90v238q0 80 94 80q86 0 86 -80v-238h362q76 0 76 -73q0 -76 -76 -76h-362v-778q0 -82 -88 -82q-92 0 -92 82v778h-90q-76 0 -76 78z" />
<glyph unicode="u" horiz-adv-x="1579" d="M123 291v647q0 78 88 78q90 0 90 -78v-647q0 -139 303 -139h375q295 0 295 135v651q0 76 94 76q90 0 90 -76v-647q0 -291 -508 -291h-315q-512 0 -512 291z" />
<glyph unicode="v" horiz-adv-x="1603" d="M37 944q0 33 27.5 56.5t62.5 23.5q37 0 63 -33l609 -794l606 798q20 25 57 25q35 0 70 -21.5t35 -54.5q0 -23 -21 -49l-680 -862q-35 -43 -71 -43q-3 0 -6 -1q-15 0 -27 9q-14 10 -31 31l-676 866q-18 18 -18 49z" />
<glyph unicode="w" horiz-adv-x="2017" d="M37 922q0 41 29.5 65.5t64.5 24.5q18 0 38.5 -11.5t31.5 -33.5l354 -762l346 731q16 35 45 50t60 15q35 0 65.5 -14t44.5 -49l346 -733l350 762q16 35 64 34q35 0 69.5 -22.5t34.5 -56.5q0 -16 -8 -31l-395 -836q-16 -35 -49 -50t-70 -15q-35 0 -67.5 16.5t-42.5 44.5 l-338 731l-342 -731q-16 -31 -50 -47t-69 -16q-39 0 -71 16t-48 49l-385 832q-8 17 -8 37z" />
<glyph unicode="x" horiz-adv-x="1404" d="M57 920q0 39 26 62.5t60 23.5q12 0 29.5 -4.5t30.5 -14.5l499 -383l502 383q29 23 58 23q37 0 62.5 -28t25.5 -62q0 -35 -37 -62l-471 -358l471 -363q29 -23 28 -55q0 -35 -23.5 -65.5t-55.5 -30.5q-20 0 -48 22l-512 385l-509 -385q-20 -20 -48 -20q-33 0 -56 29.5 t-23 64.5q0 31 28 55l469 363l-469 358q-18 14 -28.5 28t-8.5 34z" />
<glyph unicode="y" horiz-adv-x="1576" d="M123 291v647q0 76 90 76t90 -76v-647q0 -139 260 -139h705v786q0 76 88 76q92 0 92 -76v-948q0 -274 -416 -275h-227q-70 0 -70 76q0 72 70 72h244q219 0 219 127v10h-670q-475 0 -475 291z" />
<glyph unicode="z" horiz-adv-x="1507" d="M61 94q0 27 15.5 45.5t44.5 38.5l977 672h-916q-76 0 -76 76q0 74 76 73h1088q51 0 80.5 -28.5t29.5 -63.5q0 -53 -51 -86l-981 -669h1008q74 0 74 -74q0 -78 -74 -78h-1180q-49 0 -82 27.5t-33 66.5z" />
<glyph unicode="{" horiz-adv-x="569" d="M100 662q0 80 82 79q20 0 21 33v518q0 139 239 140h23q80 0 80 -82q0 -78 -80 -78h-62q-37 0 -36 -27v-457q0 -80 -103 -133q102 -59 103 -137v-475q0 -8 36 -8h52q74 0 73 -78q0 -80 -73 -80h-23q-229 0 -229 139v523q0 39 -21 39q-82 0 -82 84z" />
<glyph unicode="|" horiz-adv-x="684" d="M244 -231v1591q0 80 100 80q94 0 94 -80v-1591q0 -96 -102 -97q-92 1 -92 97z" />
<glyph unicode="}" horiz-adv-x="569" d="M31 1350q0 82 80 82h20q238 0 238 -140v-518q0 -33 24 -33q82 0 82 -79q0 -84 -82 -84q-25 0 -24 -39v-523q0 -139 -226 -139h-24q-72 0 -72 80q0 78 72 78h55q33 0 33 8v475q0 86 106 137q-106 49 -106 133v457q0 27 -33 27h-63q-80 0 -80 78z" />
<glyph unicode="~" horiz-adv-x="1474" d="M84 868q0 254 391 254q322 0 352 -239q25 -121 109 -121h119q152 0 151 110q0 84 86 84q96 0 97 -84q0 -264 -390 -264q-322 0 -352 242q-25 123 -110 123h-115q-154 0 -154 -117q0 -86 -88 -86q-96 0 -96 98z" />
<glyph unicode="&#xa1;" horiz-adv-x="552" d="M150 819q0 98 124 99q129 0 129 -99q0 -94 -129 -94q-124 0 -124 94zM178 -334v877q0 86 96 86q100 0 101 -86v-877q0 -86 -103 -86q-94 0 -94 86z" />
<glyph unicode="&#xa2;" horiz-adv-x="1636" d="M113 477v424q0 299 456 299h211v45q0 80 88 80q92 0 93 -80v-45h489q84 0 84 -78q0 -76 -84 -75h-489v-717h489q80 0 80 -82q0 -70 -80 -70h-489v-112q0 -82 -89 -82q-92 0 -92 82v112h-168q-499 0 -499 299zM295 487q0 -158 283 -157h202v717h-237q-248 0 -248 -142 v-418z" />
<glyph unicode="&#xa3;" horiz-adv-x="1632" d="M113 88v893q0 326 512 326h174q78 0 78 -72q0 -82 -78 -82h-154q-336 0 -336 -170v-256h727q76 0 76 -76q0 -82 -76 -82h-727v-415h1143q76 0 76 -72q0 -84 -76 -84l-1239 2q-100 0 -100 88z" />
<glyph unicode="&#xa5;" horiz-adv-x="1636" d="M49 1229q0 33 28.5 58.5t67.5 25.5q16 0 33 -5t29 -22l581 -579l580 579q25 27 64 27q41 0 71.5 -25.5t30.5 -58.5q0 -25 -23 -53l-585 -586h209q78 0 77 -74q0 -72 -77 -72h-250v-102h250q68 0 67 -72q0 -72 -67 -71h-250v-127q-6 -82 -94 -82q-96 0 -97 84v125h-254 q-68 0 -67 73q0 70 67 70h254v102h-254q-68 0 -67 78q0 68 67 68h215l-583 586q-23 28 -23 53z" />
<glyph unicode="&#xa6;" horiz-adv-x="686" d="M244 -231v555q0 80 100 79q96 0 96 -79v-555q0 -96 -102 -97q-94 1 -94 97zM244 776v584q0 80 100 80q96 0 96 -80v-584q0 -94 -102 -94q-94 0 -94 94z" />
<glyph unicode="&#xa7;" horiz-adv-x="1284" d="M96 74q0 78 80 78h633q166 0 166 122q0 109 -182 109h-263q-422 0 -421 256v72q0 113 129 172q-129 61 -129 180q0 244 403 244h41q86 0 86 -76q0 -74 -86 -74h-84q-180 0 -180 -94q0 -106 203 -107h274q395 0 395 -260v-65q0 -119 -131 -176q131 -63 131 -181 q0 -274 -385 -274h-600q-80 0 -80 74zM289 641q0 -106 211 -106h309q166 0 166 96v65q0 109 -187 109h-319q-180 0 -180 -94v-70z" />
<glyph unicode="&#xa8;" horiz-adv-x="968" d="M188 1237q0 84 111 84t111 -84q0 -90 -111 -90t-111 90zM555 1237q0 84 115 84q106 0 106 -84q0 -90 -106 -90q-115 0 -115 90z" />
<glyph unicode="&#xa9;" horiz-adv-x="1419" d="M113 823q0 129 47 243t128 199t189.5 134t229.5 49t230.5 -49t191 -134t130 -199t48.5 -243q0 -127 -47.5 -241.5t-128 -200.5t-190.5 -136t-234 -50q-123 0 -231.5 50t-189.5 136t-127 200.5t-46 241.5zM209 823q0 -111 40 -207t107.5 -167.5t157.5 -112.5t193 -41 q100 0 191 42t158.5 113.5t107.5 168t40 204.5q0 102 -39 196.5t-106.5 167.5t-157.5 116t-194 43q-102 0 -192.5 -42t-158 -114t-107.5 -166.5t-40 -200.5zM428 696v234q0 184 195 184h247q43 0 43 -51t-43 -51h-241q-104 0 -105 -86v-228q0 -86 107 -86h237q43 0 43 -51 t-43 -51h-247q-193 0 -193 186z" />
<glyph unicode="&#xaa;" horiz-adv-x="1046" d="M90 831v76q0 182 270 183h453q-14 63 -119 63h-129q-51 0 -51 57q0 53 51 54h113q260 0 260 -189v-237q0 -182 -260 -183h-313q-275 0 -275 176zM221 829q0 -63 121 -63h354q119 0 119 102v109h-479q-115 0 -115 -68v-80z" />
<glyph unicode="&#xab;" horiz-adv-x="1128" d="M25 578q0 41 36 69l383 297q33 20 54 21q35 0 60.5 -29t25.5 -64q0 -43 -39 -69l-305 -228l305 -223q23 -16 32 -35.5t9 -37.5q0 -35 -27 -63t-61 -28q-12 0 -27.5 4.5t-26.5 14.5l-383 299q-36 27 -36 72zM541 578q0 23 9 38t28 31l385 297q12 10 26.5 14.5t26.5 6.5 q35 0 59.5 -29t24.5 -64q0 -43 -39 -69l-303 -228l303 -223q25 -18 33 -36.5t8 -36.5q0 -35 -25.5 -63t-60.5 -28q-12 0 -27.5 4.5t-25.5 14.5l-385 299q-37 27 -37 72z" />
<glyph unicode="&#xad;" horiz-adv-x="882" d="M25 543q0 74 77 73h689q68 0 67 -69q0 -74 -67 -74h-689q-77 0 -77 70z" />
<glyph unicode="&#xae;" horiz-adv-x="1419" d="M113 823q0 129 47 243t128 199t189.5 134t229.5 49t230.5 -49t191 -134t130 -199t48.5 -243q0 -127 -47.5 -241.5t-128 -200.5t-190.5 -136t-234 -50q-123 0 -231.5 50t-189.5 136t-127 200.5t-46 241.5zM209 823q0 -111 40 -207t107.5 -167.5t157.5 -112.5t193 -41 q100 0 191 42t158.5 113.5t107.5 168t40 204.5q0 102 -38 196.5t-104.5 167.5t-157.5 116t-197 43q-102 0 -193.5 -42t-159 -114t-106.5 -166.5t-39 -200.5zM401 551v586q0 29 27 28h334q227 0 227 -159v-82q0 -74 -51 -114t-158 -40h-100l295 -195q18 -10 18 -34 q0 -18 -13 -35t-38 -17q-2 0 -8 1.5t-16 7.5l-414 278v-225q0 -55 -53 -55q-50 0 -50 55zM504 862h284q104 0 105 62v84q0 63 -119 63h-270v-209z" />
<glyph unicode="&#xaf;" horiz-adv-x="919" d="M29 1229q0 78 84 78h690q88 0 88 -74q0 -80 -88 -80h-690q-84 0 -84 76z" />
<glyph unicode="&#xb0;" horiz-adv-x="798" d="M90 1188q0 68 24.5 127t65.5 102t97.5 68.5t121.5 25.5q68 0 124.5 -25.5t97.5 -69.5t64.5 -102.5t23.5 -125.5q0 -66 -22.5 -125t-63.5 -104.5t-97.5 -72t-126.5 -26.5q-66 0 -122 24.5t-97 68.5t-65.5 103.5t-24.5 131.5zM201 1186q0 -47 16 -87t44 -67.5t63.5 -43 t74.5 -15.5q41 0 78 16.5t64.5 46t43 68.5t15.5 82q0 45 -16.5 84t-44 67.5t-64.5 45t-76 16.5q-43 0 -78.5 -18.5t-62.5 -48t-42 -68.5t-15 -78z" />
<glyph unicode="&#xb1;" horiz-adv-x="856" d="M35 242q0 70 74 69h587q70 0 70 -65q0 -76 -70 -76h-587q-74 0 -74 72zM39 653q0 74 67 74h199v131q0 78 92 78q94 0 95 -78v-131h204q70 0 70 -74q0 -78 -70 -78h-204v-135q0 -78 -86 -78q-96 0 -97 78v135h-203q-67 0 -67 78z" />
<glyph unicode="&#xb2;" horiz-adv-x="1261" d="M113 414v248q0 244 405 243h295q143 0 143 72v94q0 72 -135 72h-227q-86 0 -86 84q0 80 86 80h213q342 0 342 -254v-58q0 -258 -356 -258h-301q-190 0 -191 -73v-158h770q78 0 78 -82t-78 -82h-887q-71 0 -71 72z" />
<glyph unicode="&#xb3;" horiz-adv-x="1277" d="M113 424q0 82 88 82h592q182 0 182 92v88q0 27 -45 45l4 -2q-55 20 -135 21h-598q-88 0 -88 86q0 84 88 84h598q35 0 64.5 6t58.5 10h-2q55 20 55 53v88q0 66 -178 66h-172q-90 0 -90 84q0 80 90 80h135q406 0 405 -236v-57q0 -113 -129 -174q129 -59 129 -185v-53 q0 -260 -397 -260h-567q-88 0 -88 82z" />
<glyph unicode="&#xb4;" horiz-adv-x="454" d="M29 1155q0 25 20 45l268 287q23 23 50 22q23 0 41 -20.5t18 -42.5q0 -25 -18 -45l-271 -287q-10 -14 -22.5 -18t-26.5 -4q-23 0 -41 19t-18 44z" />
<glyph unicode="&#xb5;" horiz-adv-x="1570" d="M123 -199v1137q0 76 88 76q90 0 90 -76v-786h700q264 0 265 139v647q0 76 88 76q94 0 94 -76v-647q0 -291 -475 -291h-672v-199q0 -86 -90 -86q-88 0 -88 86z" />
<glyph unicode="&#xb6;" horiz-adv-x="1447" d="M113 1016q0 291 379 291h770q66 0 65 -62v-1171q0 -84 -98 -84t-99 84v637h-282v-637q0 -82 -100 -82q-96 0 -97 82v637h-145q-393 0 -393 305zM301 1016q0 -145 176 -146h653v283h-661q-168 0 -168 -137z" />
<glyph unicode="&#xb7;" horiz-adv-x="436" d="M94 539q0 98 125 98t125 -98t-125 -99q-125 1 -125 99z" />
<glyph unicode="&#xb8;" horiz-adv-x="501" d="M29 -250q0 68 75 68h115q94 0 94 100v64q0 74 82 73q78 0 78 -73v-64q0 -236 -258 -235h-111q-75 -1 -75 67z" />
<glyph unicode="&#xb9;" horiz-adv-x="417" d="M113 422v809q0 82 94 82q98 0 98 -82v-809q0 -84 -100 -84q-92 0 -92 84z" />
<glyph unicode="&#xba;" horiz-adv-x="1001" d="M98 844v227q0 193 297 193h211q289 0 289 -193v-227q0 -188 -289 -189h-215q-293 1 -293 189zM225 844q0 -78 156 -78h244q137 0 137 78v235q0 74 -137 74h-244q-156 0 -156 -82v-227z" />
<glyph unicode="&#xbb;" horiz-adv-x="1130" d="M25 866q0 37 23.5 69t64.5 32q29 0 49 -21l387 -299q16 -12 25.5 -31.5t11.5 -37.5q0 -23 -10.5 -39.5t-28.5 -32.5l-385 -297q-29 -18 -49 -19q-39 0 -62.5 27t-23.5 62q0 39 39 69l303 230l-303 223q-41 28 -41 65zM541 872q0 35 25.5 65t60.5 30q37 0 55 -21l385 -299 q37 -31 37 -69q0 -23 -10.5 -39.5t-28.5 -32.5l-383 -297q-29 -18 -55 -19q-35 0 -59.5 27t-24.5 62q0 39 39 69l305 230l-305 223q-23 16 -32 35.5t-9 35.5z" />
<glyph unicode="&#xbc;" horiz-adv-x="2783" d="M113 422v809q0 82 94 82q96 0 96 -82v-809q0 -84 -98 -84q-92 0 -92 84zM315 61q0 37 27 64l1143 1178q29 29 69 28q94 0 95 -86q0 -35 -33 -67l-1157 -1180q-31 -25 -58 -25q-86 0 -86 88zM1569 330v544q0 84 92 84q94 0 94 -84v-462h725v462q0 84 94 84q98 0 99 -84 v-808q0 -84 -99 -84q-94 0 -94 84v161h-813q-53 0 -75.5 24t-22.5 79z" />
<glyph unicode="&#xbd;" horiz-adv-x="2488" d="M113 422v809q0 82 94 82q96 0 96 -82v-809q0 -84 -98 -84q-92 0 -92 84zM287 61q0 37 26 64l1143 1178q29 29 72 28q92 0 92 -86q0 -37 -31 -67l-1159 -1180q-29 -25 -59 -25q-84 0 -84 88zM1337 74v243q0 244 408 244h293q143 0 143 74v92q0 74 -131 74h-229 q-84 0 -84 84t84 84h213q344 0 344 -258v-58q0 -258 -357 -258h-303q-186 0 -186 -76v-155h766q80 0 80 -82t-80 -82h-887q-74 0 -74 74z" />
<glyph unicode="&#xbe;" horiz-adv-x="3508" d="M113 424q0 82 84 82h591q182 0 183 92v88q0 27 -41 45l4 -2q-55 20 -137 21h-600q-84 0 -84 86q0 84 84 84h600q68 0 121 17t53 52v88q0 66 -178 66h-172q-88 0 -89 84q0 80 89 80h137q406 0 405 -236v-57q0 -111 -116 -174q117 -59 116 -185v-53q0 -260 -397 -260h-569 q-84 0 -84 82zM1042 61q0 37 27 64l1143 1178q29 29 72 28q94 0 94 -86q0 -35 -33 -67l-1157 -1180q-35 -25 -62 -25q-84 0 -84 88zM2294 334v545q0 84 96 84q90 0 90 -84v-463h725v463q0 84 92 84q98 0 99 -84v-809q0 -86 -99 -86q-92 0 -92 86v161h-815q-51 0 -73.5 24 t-22.5 79z" />
<glyph unicode="&#xbf;" horiz-adv-x="1130" d="M35 -57v163q0 287 504 287h249q74 0 74 92v29q0 98 96 98q86 0 86 -98v-55q0 -217 -323 -217h-217q-147 0 -218 -38t-71 -106v-151q0 -184 289 -185h86q72 0 72 -75q0 -78 -99 -78h-28q-500 2 -500 334zM836 813q0 96 122 96q127 0 127 -96q0 -98 -122 -98 q-127 0 -127 98z" />
<glyph unicode="&#xc0;" d="M37 80q0 23 14 49l750 1124q23 35 57.5 51.5t69.5 16.5q74 0 121 -68l755 -1124q12 -12 15.5 -25.5t3.5 -23.5q0 -41 -29 -63.5t-70 -22.5q-18 0 -40.5 10t-38.5 31l-215 321h-1004l-217 -323q-16 -23 -35.5 -33t-32.5 -10q-43 0 -73.5 24.5t-30.5 65.5zM530 514h791 l-391 627zM731 1731q0 23 18.5 43t40.5 20q27 0 49 -22l271 -287q18 -23 18 -45q0 -25 -18.5 -44t-40.5 -19q-12 0 -24.5 4t-25.5 18l-268 287q-20 20 -20 45z" />
<glyph unicode="&#xc1;" d="M37 80q0 23 14 49l750 1124q23 35 57.5 51.5t69.5 16.5q74 0 121 -68l755 -1124q12 -12 15.5 -25.5t3.5 -23.5q0 -41 -29 -63.5t-70 -22.5q-18 0 -40.5 10t-38.5 31l-215 321h-1004l-217 -323q-16 -23 -35.5 -33t-32.5 -10q-43 0 -73.5 24.5t-30.5 65.5zM530 514h791 l-391 627zM731 1440q0 25 20 45l268 287q23 23 50 22q23 0 41 -20.5t18 -42.5q0 -25 -18 -45l-271 -287q-10 -14 -22.5 -18t-26.5 -4q-23 0 -41 19t-18 44z" />
<glyph unicode="&#xc2;" d="M37 80q0 23 14 49l750 1124q23 35 57.5 51.5t69.5 16.5q74 0 121 -68l755 -1124q12 -12 15.5 -25.5t3.5 -23.5q0 -41 -29 -63.5t-70 -22.5q-18 0 -40.5 10t-38.5 31l-215 321h-1004l-217 -323q-16 -23 -35.5 -33t-32.5 -10q-43 0 -73.5 24.5t-30.5 65.5zM530 514h791 l-391 627zM582 1428q0 12 14 39l264 280q16 12 30.5 20.5t37.5 8.5q25 0 40 -8t27 -21l260 -272q20 -27 21 -47q0 -29 -22.5 -50.5t-45.5 -21.5q-25 0 -43 25v-2l-237 245l-234 -245q-18 -23 -41 -23q-29 0 -50 21.5t-21 50.5z" />
<glyph unicode="&#xc3;" d="M37 80q0 23 14 49l750 1124q23 35 57.5 51.5t69.5 16.5q74 0 121 -68l755 -1124q12 -12 15.5 -25.5t3.5 -23.5q0 -41 -29 -63.5t-70 -22.5q-18 0 -40.5 10t-38.5 31l-215 321h-1004l-217 -323q-16 -23 -35.5 -33t-32.5 -10q-43 0 -73.5 24.5t-30.5 65.5zM530 514h791 l-391 627zM498 1514q0 76 80 76h700q82 0 82 -72q0 -74 -82 -74h-700q-80 0 -80 70z" />
<glyph unicode="&#xc4;" d="M37 80q0 23 14 49l750 1124q23 35 57.5 51.5t69.5 16.5q74 0 121 -68l755 -1124q12 -12 15.5 -25.5t3.5 -23.5q0 -41 -29 -63.5t-70 -22.5q-18 0 -40.5 10t-38.5 31l-215 321h-1004l-217 -323q-16 -23 -35.5 -33t-32.5 -10q-43 0 -73.5 24.5t-30.5 65.5zM530 514h791 l-391 627zM632 1522q0 84 111 84t111 -84q0 -90 -111 -90t-111 90zM999 1522q0 84 115 84q106 0 106 -84q0 -90 -106 -90q-115 0 -115 90z" />
<glyph unicode="&#xc5;" d="M37 80q0 23 14 49l750 1124q23 35 57.5 51.5t69.5 16.5q74 0 121 -68l755 -1124q12 -12 15.5 -25.5t3.5 -23.5q0 -41 -29 -63.5t-70 -22.5q-18 0 -40.5 10t-38.5 31l-215 321h-1004l-217 -323q-16 -23 -35.5 -33t-32.5 -10q-43 0 -73.5 24.5t-30.5 65.5zM530 514h791 l-391 627zM713 1618q0 102 69 164h-2q63 59 152 59q43 0 83 -17t68.5 -47t46 -71t17.5 -88q0 -43 -17.5 -82t-46 -68.5t-68.5 -47t-83 -17.5q-49 0 -89 17.5t-69 47t-45 68.5t-16 82zM819 1618q0 -41 31 -71.5t82 -30.5q45 0 77.5 30.5t32.5 71.5q0 51 -32.5 81t-77.5 30 q-51 0 -82 -30t-31 -81z" />
<glyph unicode="&#xc6;" horiz-adv-x="2246" d="M37 82q0 25 14 45l752 1126q35 53 127 54h721q68 0 67 -78q0 -76 -67 -76h-439v-426h859q68 0 67 -80q0 -78 -67 -78h-859v-413h859q70 0 69 -76q0 -80 -69 -80h-959q-100 0 -100 80v489h-443l-358 -536q-16 -23 -34.5 -33t-35.5 -10q-41 0 -72.5 26.5t-31.5 65.5z M672 727h340v426h-54z" />
<glyph unicode="&#xc7;" horiz-adv-x="1554" d="M113 328v671q0 307 514 308h755q72 0 72 -76q0 -78 -72 -78h-749q-328 0 -328 -154v-665q0 -178 361 -178h716q72 0 72 -76q0 -80 -72 -80h-403v-82q0 -236 -260 -235h-111q-76 0 -76 67q0 68 76 68h115q94 0 94 100v82h-178q-526 0 -526 328z" />
<glyph unicode="&#xc8;" horiz-adv-x="1636" d="M113 315v670q0 322 526 322h227q68 0 68 -78q0 -76 -68 -76h-153q-403 0 -404 -168v-258h1151q68 0 68 -80q0 -78 -68 -78h-1151v-245q0 -168 318 -168h833q72 0 72 -76q0 -80 -72 -80h-839q-508 0 -508 315zM525 1731q0 23 18.5 43t40.5 20q27 0 49 -22l271 -287 q18 -23 18 -45q0 -25 -18.5 -44t-40.5 -19q-12 0 -24.5 4t-25.5 18l-268 287q-20 20 -20 45z" />
<glyph unicode="&#xc9;" horiz-adv-x="1636" d="M113 315v670q0 322 526 322h227q68 0 68 -78q0 -76 -68 -76h-153q-403 0 -404 -168v-258h1151q68 0 68 -80q0 -78 -68 -78h-1151v-245q0 -168 318 -168h833q72 0 72 -76q0 -80 -72 -80h-839q-508 0 -508 315zM619 1440q0 25 20 45l268 287q23 23 50 22q23 0 41 -20.5 t18 -42.5q0 -25 -18 -45l-271 -287q-10 -14 -22.5 -18t-26.5 -4q-23 0 -41 19t-18 44z" />
<glyph unicode="&#xca;" horiz-adv-x="1636" d="M113 315v670q0 322 526 322h227q68 0 68 -78q0 -76 -68 -76h-153q-403 0 -404 -168v-258h1151q68 0 68 -80q0 -78 -68 -78h-1151v-245q0 -168 318 -168h833q72 0 72 -76q0 -80 -72 -80h-839q-508 0 -508 315zM377 1428q0 12 14 39l264 280q16 12 30.5 20.5t37.5 8.5 q25 0 40 -8t27 -21l260 -272q20 -27 21 -47q0 -29 -22.5 -50.5t-45.5 -21.5q-25 0 -43 25v-2l-237 245l-234 -245q-18 -23 -41 -23q-29 0 -50 21.5t-21 50.5z" />
<glyph unicode="&#xcb;" horiz-adv-x="1636" d="M113 315v670q0 322 526 322h227q68 0 68 -78q0 -76 -68 -76h-153q-403 0 -404 -168v-258h1151q68 0 68 -80q0 -78 -68 -78h-1151v-245q0 -168 318 -168h833q72 0 72 -76q0 -80 -72 -80h-839q-508 0 -508 315zM430 1522q0 84 111 84t111 -84q0 -90 -111 -90t-111 90z M797 1522q0 84 115 84q106 0 106 -84q0 -90 -106 -90q-115 0 -115 90z" />
<glyph unicode="&#xcc;" horiz-adv-x="495" d="M150 74v1163q0 80 102 80q94 0 94 -80v-1163q0 -82 -98 -82t-98 82zM49 1731q0 23 18.5 43t40.5 20q27 0 49 -22l271 -287q18 -23 18 -45q0 -25 -18.5 -44t-40.5 -19q-12 0 -24.5 4t-25.5 18l-268 287q-20 20 -20 45z" />
<glyph unicode="&#xcd;" horiz-adv-x="495" d="M150 74v1163q0 80 102 80q94 0 94 -80v-1163q0 -82 -98 -82t-98 82zM49 1440q0 25 20 45l268 287q23 23 50 22q23 0 41 -20.5t18 -42.5q0 -25 -18 -45l-271 -287q-10 -14 -22.5 -18t-26.5 -4q-23 0 -41 19t-18 44z" />
<glyph unicode="&#xce;" horiz-adv-x="495" d="M150 74v1163q0 80 102 80q94 0 94 -80v-1163q0 -82 -98 -82t-98 82zM-98 1428q0 12 14 39l264 280q16 12 30.5 20.5t37.5 8.5q25 0 40 -8t27 -21l260 -272q20 -27 21 -47q0 -29 -22.5 -50.5t-45.5 -21.5q-25 0 -43 25v-2l-237 245l-234 -245q-18 -23 -41 -23 q-29 0 -50 21.5t-21 50.5z" />
<glyph unicode="&#xcf;" horiz-adv-x="495" d="M150 74v1163q0 80 102 80q94 0 94 -80v-1163q0 -82 -98 -82t-98 82zM-43 1522q0 84 111 84t111 -84q0 -90 -111 -90t-111 90zM324 1522q0 84 115 84q106 0 106 -84q0 -90 -106 -90q-115 0 -115 90z" />
<glyph unicode="&#xd0;" horiz-adv-x="1808" d="M0 657q0 72 78 72h53v516q0 61 64 62h997q504 0 504 -322v-643q0 -342 -506 -342h-995q-63 0 -64 66v522h-53q-78 -1 -78 69zM328 156h856q319 0 319 186v643q0 168 -313 168h-862v-424h438q68 0 68 -67q0 -74 -68 -74h-438v-432z" />
<glyph unicode="&#xd1;" horiz-adv-x="1818" d="M131 74v1120q0 61 37 89t82 28q29 0 53.5 -7.5t46.5 -29.5l1145 -1012v975q0 80 98 80q92 0 93 -80v-1116q0 -66 -36 -98.5t-83 -32.5q-20 0 -44 8t-46 31l-1155 1032v-987q0 -84 -97 -84q-94 0 -94 84zM478 1514q0 76 80 76h700q82 0 82 -72q0 -74 -82 -74h-700 q-80 0 -80 70z" />
<glyph unicode="&#xd2;" horiz-adv-x="1740" d="M113 340v627q0 340 575 340h363q578 0 577 -340v-625q0 -342 -577 -342h-363q-575 0 -575 340zM309 344q0 -188 338 -188h457q330 0 330 188v612q0 197 -318 197h-469q-338 0 -338 -197v-612zM672 1731q0 23 18.5 43t40.5 20q27 0 49 -22l271 -287q18 -23 18 -45 q0 -25 -18.5 -44t-40.5 -19q-12 0 -24.5 4t-25.5 18l-268 287q-20 20 -20 45z" />
<glyph unicode="&#xd3;" horiz-adv-x="1740" d="M113 340v627q0 340 575 340h363q578 0 577 -340v-625q0 -342 -577 -342h-363q-575 0 -575 340zM309 344q0 -188 338 -188h457q330 0 330 188v612q0 197 -318 197h-469q-338 0 -338 -197v-612zM672 1440q0 25 20 45l268 287q23 23 50 22q23 0 41 -20.5t18 -42.5 q0 -25 -18 -45l-271 -287q-10 -14 -22.5 -18t-26.5 -4q-23 0 -41 19t-18 44z" />
<glyph unicode="&#xd4;" horiz-adv-x="1740" d="M113 340v627q0 340 575 340h363q578 0 577 -340v-625q0 -342 -577 -342h-363q-575 0 -575 340zM309 344q0 -188 338 -188h457q330 0 330 188v612q0 197 -318 197h-469q-338 0 -338 -197v-612zM523 1428q0 12 14 39l264 280q16 12 30.5 20.5t37.5 8.5q25 0 40 -8t27 -21 l260 -272q20 -27 21 -47q0 -29 -22.5 -50.5t-45.5 -21.5q-25 0 -43 25v-2l-237 245l-234 -245q-18 -23 -41 -23q-29 0 -50 21.5t-21 50.5z" />
<glyph unicode="&#xd5;" horiz-adv-x="1740" d="M113 340v627q0 340 575 340h363q578 0 577 -340v-625q0 -342 -577 -342h-363q-575 0 -575 340zM309 344q0 -188 338 -188h457q330 0 330 188v612q0 197 -318 197h-469q-338 0 -338 -197v-612zM441 1514q0 76 80 76h700q82 0 82 -72q0 -74 -82 -74h-700q-80 0 -80 70z" />
<glyph unicode="&#xd6;" horiz-adv-x="1740" d="M113 340v627q0 340 575 340h363q578 0 577 -340v-625q0 -342 -577 -342h-363q-575 0 -575 340zM309 344q0 -188 338 -188h457q330 0 330 188v612q0 197 -318 197h-469q-338 0 -338 -197v-612zM577 1522q0 84 111 84t111 -84q0 -90 -111 -90t-111 90zM944 1522 q0 84 115 84q106 0 106 -84q0 -90 -106 -90q-115 0 -115 90z" />
<glyph unicode="&#xd7;" horiz-adv-x="694" d="M59 334q0 25 23 53l156 152l-156 157q-23 29 -23 54q0 33 22.5 55t55.5 22q29 0 51 -24l156 -156l160 160q20 25 51 24q35 0 57.5 -24.5t22.5 -52.5q0 -29 -25 -56l-159 -159l159 -156q25 -25 25 -53q0 -33 -22.5 -56.5t-57.5 -23.5q-31 0 -51 26l-160 158l-156 -155 q-23 -25 -51 -25q-33 0 -55.5 23.5t-22.5 56.5z" />
<glyph unicode="&#xd8;" horiz-adv-x="1880" d="M154 340v627q0 340 575 340h367q575 0 575 -340v-625q0 -342 -575 -342h-367q-575 0 -575 340zM352 342q0 -18 2 -18l957 815q-27 14 -152 14h-467q-340 0 -340 -197v-587v-27zM467 188q63 -33 225 -32h455q330 0 330 188v612q0 35 -15 76z" />
<glyph unicode="&#xd9;" horiz-adv-x="1792" d="M123 360v877q0 80 94 80q100 0 100 -80v-862q0 -219 385 -219h355q420 0 420 219v862q0 80 96 80t96 -80v-877q0 -360 -645 -360h-293q-608 0 -608 360zM699 1731q0 23 18.5 43t40.5 20q27 0 49 -22l271 -287q18 -23 18 -45q0 -25 -18.5 -44t-40.5 -19q-12 0 -24.5 4 t-25.5 18l-268 287q-20 20 -20 45z" />
<glyph unicode="&#xda;" horiz-adv-x="1792" d="M123 360v877q0 80 94 80q100 0 100 -80v-862q0 -219 385 -219h355q420 0 420 219v862q0 80 96 80t96 -80v-877q0 -360 -645 -360h-293q-608 0 -608 360zM699 1440q0 25 20 45l268 287q23 23 50 22q23 0 41 -20.5t18 -42.5q0 -25 -18 -45l-271 -287q-10 -14 -22.5 -18 t-26.5 -4q-23 0 -41 19t-18 44z" />
<glyph unicode="&#xdb;" horiz-adv-x="1792" d="M123 360v877q0 80 94 80q100 0 100 -80v-862q0 -219 385 -219h355q420 0 420 219v862q0 80 96 80t96 -80v-877q0 -360 -645 -360h-293q-608 0 -608 360zM547 1428q0 12 14 39l264 280q16 12 30.5 20.5t37.5 8.5q25 0 40 -8t27 -21l260 -272q20 -27 21 -47 q0 -29 -22.5 -50.5t-45.5 -21.5q-25 0 -43 25v-2l-237 245l-234 -245q-18 -23 -41 -23q-29 0 -50 21.5t-21 50.5z" />
<glyph unicode="&#xdc;" horiz-adv-x="1792" d="M123 360v877q0 80 94 80q100 0 100 -80v-862q0 -219 385 -219h355q420 0 420 219v862q0 80 96 80t96 -80v-877q0 -360 -645 -360h-293q-608 0 -608 360zM600 1522q0 84 111 84t111 -84q0 -90 -111 -90t-111 90zM967 1522q0 84 115 84q106 0 106 -84q0 -90 -106 -90 q-115 0 -115 90z" />
<glyph unicode="&#xdd;" horiz-adv-x="1562" d="M37 1229q0 33 29.5 57.5t68.5 24.5q35 0 66 -25l579 -579l578 579q27 27 67 27q37 0 69 -25.5t32 -58.5q0 -12 -5 -26.5t-20 -26.5l-620 -623l-2 -481q-8 -82 -97 -82q-96 0 -96 84v479l-623 623q-26 26 -26 53zM582 1440q0 25 20 45l268 287q23 23 50 22q23 0 41 -20.5 t18 -42.5q0 -25 -18 -45l-271 -287q-10 -14 -22.5 -18t-26.5 -4q-23 0 -41 19t-18 44z" />
<glyph unicode="&#xde;" horiz-adv-x="1781" d="M131 74v1163q0 80 102 80q94 0 95 -80v-164h841q524 0 525 -289v-231q0 -305 -531 -305h-835v-185q-10 -74 -101 -73q-96 0 -96 84zM328 410h858q315 0 315 153v203q0 152 -303 152h-870v-508z" />
<glyph unicode="&#xdf;" horiz-adv-x="1593" d="M123 66v974q0 260 332 260h92q307 0 307 -278v-219q0 -109 211 -109h45q395 0 395 -258v-135q0 -301 -450 -301h-428q-78 0 -78 78q0 74 78 74h444q240 0 240 139v145q0 111 -178 111h-37q-422 0 -422 252v241q0 115 -127 115h-92q-152 0 -152 -115v-974q0 -82 -92 -82 q-88 0 -88 82z" />
<glyph unicode="&#xe0;" horiz-adv-x="1617" d="M100 281v131q0 291 439 290h792q-18 147 -221 148h-221q-66 0 -66 78q0 72 66 71h192q426 0 426 -299v-407q0 -293 -426 -293h-532q-449 0 -449 281zM285 279q0 -127 227 -127h602q219 0 219 192v207h-835q-213 0 -213 -135v-137zM797 1446q0 23 18.5 43t40.5 20 q27 0 49 -22l271 -287q18 -23 18 -45q0 -25 -18.5 -44t-40.5 -19q-12 0 -24.5 4t-25.5 18l-268 287q-20 20 -20 45z" />
<glyph unicode="&#xe1;" horiz-adv-x="1617" d="M100 281v131q0 291 439 290h792q-18 147 -221 148h-221q-66 0 -66 78q0 72 66 71h192q426 0 426 -299v-407q0 -293 -426 -293h-532q-449 0 -449 281zM285 279q0 -127 227 -127h602q219 0 219 192v207h-835q-213 0 -213 -135v-137zM797 1155q0 25 20 45l268 287 q23 23 50 22q23 0 41 -20.5t18 -42.5q0 -25 -18 -45l-271 -287q-10 -14 -22.5 -18t-26.5 -4q-23 0 -41 19t-18 44z" />
<glyph unicode="&#xe2;" horiz-adv-x="1617" d="M100 281v131q0 291 439 290h792q-18 147 -221 148h-221q-66 0 -66 78q0 72 66 71h192q426 0 426 -299v-407q0 -293 -426 -293h-532q-449 0 -449 281zM285 279q0 -127 227 -127h602q219 0 219 192v207h-835q-213 0 -213 -135v-137zM650 1143q0 12 14 39l264 280 q16 12 30.5 20.5t37.5 8.5q25 0 40 -8t27 -21l260 -272q20 -27 21 -47q0 -29 -22.5 -50.5t-45.5 -21.5q-25 0 -43 25v-2l-237 245l-234 -245q-18 -23 -41 -23q-29 0 -50 21.5t-21 50.5z" />
<glyph unicode="&#xe3;" horiz-adv-x="1617" d="M100 281v131q0 291 439 290h792q-18 147 -221 148h-221q-66 0 -66 78q0 72 66 71h192q426 0 426 -299v-407q0 -293 -426 -293h-532q-449 0 -449 281zM285 279q0 -127 227 -127h602q219 0 219 192v207h-835q-213 0 -213 -135v-137zM566 1229q0 76 80 76h700q82 0 82 -72 q0 -74 -82 -74h-700q-80 0 -80 70z" />
<glyph unicode="&#xe4;" horiz-adv-x="1617" d="M100 281v131q0 291 439 290h792q-18 147 -221 148h-221q-66 0 -66 78q0 72 66 71h192q426 0 426 -299v-407q0 -293 -426 -293h-532q-449 0 -449 281zM285 279q0 -127 227 -127h602q219 0 219 192v207h-835q-213 0 -213 -135v-137zM700 1237q0 84 111 84t111 -84 q0 -90 -111 -90t-111 90zM1067 1237q0 84 115 84q106 0 106 -84q0 -90 -106 -90q-115 0 -115 90z" />
<glyph unicode="&#xe5;" horiz-adv-x="1617" d="M100 281v131q0 291 439 290h792q-18 147 -221 148h-221q-66 0 -66 78q0 72 66 71h192q426 0 426 -299v-407q0 -293 -426 -293h-532q-449 0 -449 281zM285 279q0 -127 227 -127h602q219 0 219 192v207h-835q-213 0 -213 -135v-137zM779 1333q0 102 69 164h-2q63 59 152 59 q43 0 83 -17t68.5 -47t46 -71t17.5 -88q0 -43 -17.5 -82t-46 -68.5t-68.5 -47t-83 -17.5q-49 0 -89 17.5t-69 47t-45 68.5t-16 82zM885 1333q0 -41 31 -71.5t82 -30.5q45 0 77.5 30.5t32.5 71.5q0 51 -32.5 81t-77.5 30q-51 0 -82 -30t-31 -81z" />
<glyph unicode="&#xe6;" horiz-adv-x="2764" d="M100 281v131q0 291 439 290h792q-18 147 -221 148h-221q-66 0 -66 78q0 72 66 71h192q242 0 346 -98q125 98 410 98h412q422 0 422 -266v-239q0 -82 -82 -82h-1071v-125q0 -135 278 -135h199q78 0 78 -74q0 -78 -78 -78h-154q-285 0 -409 98q-104 -98 -351 -98h-532 q-449 0 -449 281zM285 279q0 -127 227 -127h602q219 0 219 184v215h-835q-213 0 -213 -135v-137zM1518 567h974v148q0 135 -208 135h-488q-279 0 -278 -143v-140z" />
<glyph unicode="&#xe7;" horiz-adv-x="1421" d="M113 295v412q0 293 448 292h670q84 0 84 -71q0 -78 -84 -78h-694q-242 0 -242 -139v-408q0 -152 278 -151h658q76 0 76 -80q0 -72 -76 -72h-361v-82q0 -236 -258 -235h-112q-76 0 -76 67q0 68 76 68h116q92 0 93 100v82h-103q-493 0 -493 295z" />
<glyph unicode="&#xe8;" horiz-adv-x="1542" d="M113 309v385q0 305 501 305h410q424 0 424 -266v-239q0 -82 -82 -82h-1071v-125q0 -135 278 -135h199q78 0 78 -74q0 -78 -78 -78h-151q-508 0 -508 309zM295 567h977v148q0 135 -211 135h-488q-279 0 -278 -143v-140zM572 1446q0 23 18.5 43t40.5 20q27 0 49 -22 l271 -287q18 -23 18 -45q0 -25 -18.5 -44t-40.5 -19q-12 0 -24.5 4t-25.5 18l-268 287q-20 20 -20 45z" />
<glyph unicode="&#xe9;" horiz-adv-x="1542" d="M113 309v385q0 305 501 305h410q424 0 424 -266v-239q0 -82 -82 -82h-1071v-125q0 -135 278 -135h199q78 0 78 -74q0 -78 -78 -78h-151q-508 0 -508 309zM295 567h977v148q0 135 -211 135h-488q-279 0 -278 -143v-140zM572 1155q0 25 20 45l268 287q23 23 50 22 q23 0 41 -20.5t18 -42.5q0 -25 -18 -45l-271 -287q-10 -14 -22.5 -18t-26.5 -4q-23 0 -41 19t-18 44z" />
<glyph unicode="&#xea;" horiz-adv-x="1542" d="M113 309v385q0 305 501 305h410q424 0 424 -266v-239q0 -82 -82 -82h-1071v-125q0 -135 278 -135h199q78 0 78 -74q0 -78 -78 -78h-151q-508 0 -508 309zM295 567h977v148q0 135 -211 135h-488q-279 0 -278 -143v-140zM424 1143q0 12 14 39l264 280q16 12 30.5 20.5 t37.5 8.5q25 0 40 -8t27 -21l260 -272q20 -27 21 -47q0 -29 -22.5 -50.5t-45.5 -21.5q-25 0 -43 25v-2l-237 245l-234 -245q-18 -23 -41 -23q-29 0 -50 21.5t-21 50.5z" />
<glyph unicode="&#xeb;" horiz-adv-x="1542" d="M113 309v385q0 305 501 305h410q424 0 424 -266v-239q0 -82 -82 -82h-1071v-125q0 -135 278 -135h199q78 0 78 -74q0 -78 -78 -78h-151q-508 0 -508 309zM295 567h977v148q0 135 -211 135h-488q-279 0 -278 -143v-140zM477 1237q0 84 111 84t111 -84q0 -90 -111 -90 t-111 90zM844 1237q0 84 115 84q106 0 106 -84q0 -90 -106 -90q-115 0 -115 90z" />
<glyph unicode="&#xec;" horiz-adv-x="438" d="M131 72v846q0 78 86 77q92 0 92 -77v-846q0 -82 -90 -82q-88 0 -88 82zM23 1446q0 23 18.5 43t40.5 20q27 0 49 -22l271 -287q18 -23 18 -45q0 -25 -18.5 -44t-40.5 -19q-12 0 -24.5 4t-25.5 18l-268 287q-20 20 -20 45z" />
<glyph unicode="&#xed;" horiz-adv-x="438" d="M131 72v846q0 78 86 77q92 0 92 -77v-846q0 -82 -90 -82q-88 0 -88 82zM23 1155q0 25 20 45l268 287q23 23 50 22q23 0 41 -20.5t18 -42.5q0 -25 -18 -45l-271 -287q-10 -14 -22.5 -18t-26.5 -4q-23 0 -41 19t-18 44z" />
<glyph unicode="&#xee;" horiz-adv-x="438" d="M131 72v846q0 78 86 77q92 0 92 -77v-846q0 -82 -90 -82q-88 0 -88 82zM-123 1143q0 12 14 39l264 280q16 12 30.5 20.5t37.5 8.5q25 0 40 -8t27 -21l260 -272q20 -27 21 -47q0 -29 -22.5 -50.5t-45.5 -21.5q-25 0 -43 25v-2l-237 245l-234 -245q-18 -23 -41 -23 q-29 0 -50 21.5t-21 50.5z" />
<glyph unicode="&#xef;" horiz-adv-x="438" d="M131 72v846q0 78 86 77q92 0 92 -77v-846q0 -82 -90 -82q-88 0 -88 82zM-72 1237q0 84 111 84t111 -84q0 -90 -111 -90t-111 90zM295 1237q0 84 115 84q106 0 106 -84q0 -90 -106 -90q-115 0 -115 90z" />
<glyph unicode="&#xf0;" horiz-adv-x="1558" d="M113 303v395q0 301 530 301h432q68 0 68 -73q0 -76 -74 -76h-463q-311 0 -311 -154v-397q0 -147 268 -147l410 -2q289 -4 289 165v697q0 139 -287 139h-174q-80 0 -80 76q0 74 80 73h151q496 0 496 -315v-678q0 -307 -526 -307h-326q-483 0 -483 303z" />
<glyph unicode="&#xf1;" horiz-adv-x="1562" d="M123 72v655q0 272 481 272h352q485 0 486 -272v-655q0 -82 -92 -82t-93 82v655q0 123 -247 123h-457q-250 0 -250 -123v-655q0 -82 -90 -82t-90 82zM351 1229q0 76 80 76h700q82 0 82 -72q0 -74 -82 -74h-700q-80 0 -80 70z" />
<glyph unicode="&#xf2;" horiz-adv-x="1544" d="M113 303v387q0 309 487 309h361q471 0 471 -307v-389q0 -303 -471 -303h-367q-481 0 -481 303zM295 303q0 -152 278 -151h416q256 0 256 151v404q0 143 -256 143h-416q-279 0 -278 -160v-387zM574 1446q0 23 18.5 43t40.5 20q27 0 49 -22l271 -287q18 -23 18 -45 q0 -25 -18.5 -44t-40.5 -19q-12 0 -24.5 4t-25.5 18l-268 287q-20 20 -20 45z" />
<glyph unicode="&#xf3;" horiz-adv-x="1544" d="M113 303v387q0 309 487 309h361q471 0 471 -307v-389q0 -303 -471 -303h-367q-481 0 -481 303zM295 303q0 -152 278 -151h416q256 0 256 151v404q0 143 -256 143h-416q-279 0 -278 -160v-387zM574 1155q0 25 20 45l268 287q23 23 50 22q23 0 41 -20.5t18 -42.5 q0 -25 -18 -45l-271 -287q-10 -14 -22.5 -18t-26.5 -4q-23 0 -41 19t-18 44z" />
<glyph unicode="&#xf4;" horiz-adv-x="1544" d="M113 303v387q0 309 487 309h361q471 0 471 -307v-389q0 -303 -471 -303h-367q-481 0 -481 303zM295 303q0 -152 278 -151h416q256 0 256 151v404q0 143 -256 143h-416q-279 0 -278 -160v-387zM424 1143q0 12 14 39l264 280q16 12 30.5 20.5t37.5 8.5q25 0 40 -8t27 -21 l260 -272q20 -27 21 -47q0 -29 -22.5 -50.5t-45.5 -21.5q-25 0 -43 25v-2l-237 245l-234 -245q-18 -23 -41 -23q-29 0 -50 21.5t-21 50.5z" />
<glyph unicode="&#xf5;" horiz-adv-x="1544" d="M113 303v387q0 309 487 309h361q471 0 471 -307v-389q0 -303 -471 -303h-367q-481 0 -481 303zM295 303q0 -152 278 -151h416q256 0 256 151v404q0 143 -256 143h-416q-279 0 -278 -160v-387zM342 1229q0 76 80 76h700q82 0 82 -72q0 -74 -82 -74h-700q-80 0 -80 70z" />
<glyph unicode="&#xf6;" horiz-adv-x="1544" d="M113 303v387q0 309 487 309h361q471 0 471 -307v-389q0 -303 -471 -303h-367q-481 0 -481 303zM295 303q0 -152 278 -151h416q256 0 256 151v404q0 143 -256 143h-416q-279 0 -278 -160v-387zM477 1237q0 84 111 84t111 -84q0 -90 -111 -90t-111 90zM844 1237 q0 84 115 84q106 0 106 -84q0 -90 -106 -90q-115 0 -115 90z" />
<glyph unicode="&#xf7;" horiz-adv-x="952" d="M59 543q0 74 74 73h690q68 0 68 -69q0 -74 -68 -74h-690q-74 0 -74 70zM348 285q0 96 119 96q131 0 131 -96t-127 -97q-123 1 -123 97zM348 803q0 98 119 98q131 0 131 -98q0 -96 -127 -96q-123 0 -123 96z" />
<glyph unicode="&#xf8;" horiz-adv-x="1544" d="M113 303v387q0 309 487 309h361q471 0 471 -307v-389q0 -303 -471 -303h-367q-481 0 -481 303zM295 303q0 -18 1 -31.5t5 -23.5l811 590q-33 4 -62.5 8t-60.5 4h-416q-279 0 -278 -160v-387zM436 162q29 -6 62.5 -8t74.5 -2h416q256 0 256 151v404q0 25 -8 38z" />
<glyph unicode="&#xf9;" horiz-adv-x="1579" d="M123 291v647q0 78 88 78q90 0 90 -78v-647q0 -139 303 -139h375q295 0 295 135v651q0 76 94 76q90 0 90 -76v-647q0 -291 -508 -291h-315q-512 0 -512 291zM590 1446q0 23 18.5 43t40.5 20q27 0 49 -22l271 -287q18 -23 18 -45q0 -25 -18.5 -44t-40.5 -19q-12 0 -24.5 4 t-25.5 18l-268 287q-20 20 -20 45z" />
<glyph unicode="&#xfa;" horiz-adv-x="1579" d="M123 291v647q0 78 88 78q90 0 90 -78v-647q0 -139 303 -139h375q295 0 295 135v651q0 76 94 76q90 0 90 -76v-647q0 -291 -508 -291h-315q-512 0 -512 291zM590 1155q0 25 20 45l268 287q23 23 50 22q23 0 41 -20.5t18 -42.5q0 -25 -18 -45l-271 -287q-10 -14 -22.5 -18 t-26.5 -4q-23 0 -41 19t-18 44z" />
<glyph unicode="&#xfb;" horiz-adv-x="1579" d="M123 291v647q0 78 88 78q90 0 90 -78v-647q0 -139 303 -139h375q295 0 295 135v651q0 76 94 76q90 0 90 -76v-647q0 -291 -508 -291h-315q-512 0 -512 291zM443 1143q0 12 14 39l264 280q16 12 30.5 20.5t37.5 8.5q25 0 40 -8t27 -21l260 -272q20 -27 21 -47 q0 -29 -22.5 -50.5t-45.5 -21.5q-25 0 -43 25v-2l-237 245l-234 -245q-18 -23 -41 -23q-29 0 -50 21.5t-21 50.5z" />
<glyph unicode="&#xfc;" horiz-adv-x="1579" d="M123 291v647q0 78 88 78q90 0 90 -78v-647q0 -139 303 -139h375q295 0 295 135v651q0 76 94 76q90 0 90 -76v-647q0 -291 -508 -291h-315q-512 0 -512 291zM495 1237q0 84 111 84t111 -84q0 -90 -111 -90t-111 90zM862 1237q0 84 115 84q106 0 106 -84q0 -90 -106 -90 q-115 0 -115 90z" />
<glyph unicode="&#xfd;" horiz-adv-x="1576" d="M123 291v647q0 76 90 76t90 -76v-647q0 -139 260 -139h705v786q0 76 88 76q92 0 92 -76v-948q0 -274 -416 -275h-227q-70 0 -70 76q0 72 70 72h244q219 0 219 127v10h-670q-475 0 -475 291zM590 1155q0 25 20 45l268 287q23 23 50 22q23 0 41 -20.5t18 -42.5 q0 -25 -18 -45l-271 -287q-10 -14 -22.5 -18t-26.5 -4q-23 0 -41 19t-18 44z" />
<glyph unicode="&#xfe;" horiz-adv-x="1576" d="M131 -225v1462q0 80 90 80q92 0 92 -80v-293q111 55 299 55h349q506 0 505 -284v-414q0 -301 -454 -301h-699v-225q0 -84 -92 -84q-90 0 -90 84zM313 152h729q238 0 238 147v412q0 139 -291 139h-397q-279 0 -279 -143v-555z" />
<glyph unicode="&#xff;" horiz-adv-x="1576" d="M123 291v647q0 76 90 76t90 -76v-647q0 -139 260 -139h705v786q0 76 88 76q92 0 92 -76v-948q0 -274 -416 -275h-227q-70 0 -70 76q0 72 70 72h244q219 0 219 127v10h-670q-475 0 -475 291zM493 1237q0 84 111 84t111 -84q0 -90 -111 -90t-111 90zM860 1237q0 84 115 84 q106 0 106 -84q0 -90 -106 -90q-115 0 -115 90z" />
<glyph unicode="&#x131;" horiz-adv-x="438" d="M131 72v846q0 78 86 77q92 0 92 -77v-846q0 -82 -90 -82q-88 0 -88 82z" />
<glyph unicode="&#x152;" horiz-adv-x="2955" d="M113 340v627q0 340 575 340h363q330 0 471 -111q66 55 171 83t265 28h227q68 0 68 -78q0 -76 -68 -76h-151q-406 0 -406 -186v-240h1151q68 0 68 -80q0 -78 -68 -78h-1151v-245q0 -168 318 -168h833q72 0 72 -76q0 -80 -72 -80h-840q-305 0 -419 109q-143 -109 -469 -109 h-363q-575 0 -575 340zM309 344q0 -188 338 -188h457q328 0 328 168v643q0 186 -316 186h-469q-338 0 -338 -197v-612z" />
<glyph unicode="&#x153;" horiz-adv-x="2682" d="M113 303v387q0 309 487 309h361q270 0 382 -100q119 100 412 100h410q422 0 422 -266v-239q0 -82 -80 -82h-1073v-125q0 -135 278 -135h201q78 0 78 -74q0 -78 -78 -78h-154q-287 0 -413 100q-115 -100 -385 -100h-367q-481 0 -481 303zM295 303q0 -152 278 -151h416 q256 0 256 151v404q0 143 -256 143h-416q-279 0 -278 -160v-387zM1434 567h976v148q0 135 -208 135h-490q-279 0 -278 -143v-140z" />
<glyph unicode="&#x178;" horiz-adv-x="1562" d="M37 1229q0 33 29.5 57.5t68.5 24.5q35 0 66 -25l579 -579l578 579q27 27 67 27q37 0 69 -25.5t32 -58.5q0 -12 -5 -26.5t-20 -26.5l-620 -623l-2 -481q-8 -82 -97 -82q-96 0 -96 84v479l-623 623q-26 26 -26 53zM485 1522q0 84 111 84t111 -84q0 -90 -111 -90t-111 90z M852 1522q0 84 115 84q106 0 106 -84q0 -90 -106 -90q-115 0 -115 90z" />
<glyph unicode="&#x2c6;" horiz-adv-x="751" d="M29 1143q0 12 14 39l264 280q16 12 30.5 20.5t37.5 8.5q25 0 40 -8t27 -21l260 -272q20 -27 21 -47q0 -29 -22.5 -50.5t-45.5 -21.5q-25 0 -43 25v-2l-237 245l-234 -245q-18 -23 -41 -23q-29 0 -50 21.5t-21 50.5z" />
<glyph unicode="&#x2da;" horiz-adv-x="491" d="M29 1333q0 102 69 164h-2q63 59 152 59q43 0 83 -17t68.5 -47t46 -71t17.5 -88q0 -43 -17.5 -82t-46 -68.5t-68.5 -47t-83 -17.5q-49 0 -89 17.5t-69 47t-45 68.5t-16 82zM135 1333q0 -41 31 -71.5t82 -30.5q45 0 77.5 30.5t32.5 71.5q0 51 -32.5 81t-77.5 30 q-51 0 -82 -30t-31 -81z" />
<glyph unicode="&#x2dc;" horiz-adv-x="919" d="M29 1229q0 76 80 76h700q82 0 82 -72q0 -74 -82 -74h-700q-80 0 -80 70z" />
<glyph unicode="&#x2000;" horiz-adv-x="919" />
<glyph unicode="&#x2001;" horiz-adv-x="1841" />
<glyph unicode="&#x2002;" horiz-adv-x="919" />
<glyph unicode="&#x2003;" horiz-adv-x="1841" />
<glyph unicode="&#x2004;" horiz-adv-x="612" />
<glyph unicode="&#x2005;" horiz-adv-x="458" />
<glyph unicode="&#x2006;" horiz-adv-x="305" />
<glyph unicode="&#x2007;" horiz-adv-x="305" />
<glyph unicode="&#x2008;" horiz-adv-x="229" />
<glyph unicode="&#x2009;" horiz-adv-x="366" />
<glyph unicode="&#x200a;" horiz-adv-x="100" />
<glyph unicode="&#x2010;" horiz-adv-x="882" d="M25 543q0 74 77 73h689q68 0 67 -69q0 -74 -67 -74h-689q-77 0 -77 70z" />
<glyph unicode="&#x2011;" horiz-adv-x="882" d="M25 543q0 74 77 73h689q68 0 67 -69q0 -74 -67 -74h-689q-77 0 -77 70z" />
<glyph unicode="&#x2012;" horiz-adv-x="882" d="M25 543q0 74 77 73h689q68 0 67 -69q0 -74 -67 -74h-689q-77 0 -77 70z" />
<glyph unicode="&#x2013;" horiz-adv-x="1071" d="M25 543q0 74 75 73h877q68 0 67 -69q0 -74 -67 -74h-877q-75 0 -75 70z" />
<glyph unicode="&#x2014;" horiz-adv-x="1368" d="M25 543q0 74 75 73h1176q66 0 65 -69q0 -74 -65 -74h-1176q-75 0 -75 70z" />
<glyph unicode="&#x2018;" horiz-adv-x="421" d="M82 1239v14q0 35 25.5 53.5t58.5 18.5q39 0 72.5 -21.5t37.5 -62.5l62 -311q2 -2 2 -12v-11q0 -35 -23.5 -52t-56.5 -17q-29 0 -57.5 18t-38.5 59l-80 314q-2 4 -2 10z" />
<glyph unicode="&#x2019;" horiz-adv-x="419" d="M82 907q0 2 1 7l3 16l55 311q8 41 40 62.5t71 21.5q35 0 60.5 -18.5t25.5 -53.5q0 -18 -2 -24l-80 -314q-10 -41 -41 -59t-59 -18q-31 0 -52.5 17t-21.5 52z" />
<glyph unicode="&#x201a;" horiz-adv-x="421" d="M84 -125q0 2 1 3t1 5l60 320q8 41 40.5 64.5t67.5 23.5q39 0 62.5 -20.5t23.5 -55.5q0 -16 -2 -20l-80 -316q-12 -39 -40.5 -57.5t-57.5 -18.5q-35 0 -55.5 21.5t-20.5 50.5z" />
<glyph unicode="&#x201c;" horiz-adv-x="681" d="M82 1239v14q0 35 25.5 53.5t56.5 18.5q41 0 74.5 -21.5t37.5 -62.5l60 -311q2 -2 2 -12v-11q0 -35 -22.5 -52t-55.5 -17q-29 0 -57.5 18t-40.5 59l-78 314q-2 4 -2 10zM344 1239v14q0 35 24.5 53.5t57.5 18.5q41 0 72.5 -21.5t40.5 -62.5l59 -311q2 -2 2 -12v-11 q0 -35 -22.5 -52t-55.5 -17q-29 0 -58.5 18t-39.5 59l-76 314q-2 2 -2 8q0 2 -2 2z" />
<glyph unicode="&#x201d;" horiz-adv-x="679" d="M82 909q0 16 2 21l57 311q8 41 39 62.5t72 21.5q35 0 61.5 -19.5t26.5 -56.5l-4 -20l-80 -314q-10 -41 -40 -59t-58 -18q-33 0 -54.5 18t-21.5 53zM342 909v21l61 311q6 41 38 62.5t71 21.5q35 0 60.5 -19.5t25.5 -56.5l-4 -20l-78 -314q-10 -41 -41 -59t-57 -18 q-33 0 -54.5 18t-21.5 53z" />
<glyph unicode="&#x201e;" horiz-adv-x="770" d="M434 -125q0 2 1 3t1 5l60 320q8 41 40.5 64.5t67.5 23.5q39 0 62.5 -20.5t23.5 -55.5q0 -16 -2 -20l-80 -316q-12 -39 -40.5 -57.5t-57.5 -18.5q-35 0 -55.5 21.5t-20.5 50.5zM84 -125q0 2 1 3t1 5l60 320q8 41 40.5 64.5t67.5 23.5q39 0 62.5 -20.5t23.5 -55.5 q0 -16 -2 -20l-80 -316q-12 -39 -40.5 -57.5t-57.5 -18.5q-35 0 -55.5 21.5t-20.5 50.5z" />
<glyph unicode="&#x2022;" horiz-adv-x="874" d="M150 438v203q0 127 188 127h211q174 0 174 -117v-213q0 -121 -172 -121h-213q-188 0 -188 121z" />
<glyph unicode="&#x2026;" horiz-adv-x="1308" d="M94 102q0 94 125 95q125 0 125 -95q0 -100 -125 -100t-125 100zM530 102q0 94 125 95q125 0 125 -95q0 -100 -125 -100t-125 100zM967 102q0 94 125 95q125 0 125 -95q0 -100 -125 -100t-125 100z" />
<glyph unicode="&#x202f;" horiz-adv-x="366" />
<glyph unicode="&#x2039;" horiz-adv-x="612" d="M25 578q0 47 41 69l380 297q25 18 56 21q35 0 58.5 -29t23.5 -64q0 -43 -37 -69l-303 -228l303 -223q23 -16 31 -35.5t8 -37.5q0 -35 -24.5 -63t-59.5 -28q-37 0 -56 19l-383 299q-38 31 -38 72z" />
<glyph unicode="&#x203a;" horiz-adv-x="612" d="M25 279q0 43 38 73l304 223l-304 228q-23 16 -29.5 34.5t-6.5 34.5q0 39 24.5 65t59.5 26q12 -4 23 -6.5t26 -12.5l387 -297q18 -16 28.5 -31.5t10.5 -37.5q0 -41 -39 -72l-385 -299q-23 -18 -51 -19q-35 0 -60.5 28t-25.5 63z" />
<glyph unicode="&#x205f;" horiz-adv-x="458" />
<glyph unicode="&#x20ac;" horiz-adv-x="1628" d="M37 479q0 72 69 72h50v184h-50q-70 0 -69 78q0 68 69 68h50v118q0 307 518 308h778q72 0 72 -76q0 -78 -72 -78h-772q-328 0 -328 -154v-118h836q74 0 74 -74q0 -72 -74 -72h-836v-184h649q66 0 66 -74q0 -68 -66 -67h-649v-76q0 -178 359 -178h802q70 0 70 -76 q0 -80 -70 -80h-827q-530 0 -530 328v82h-50q-69 -1 -69 69z" />
<glyph unicode="&#x2122;" horiz-adv-x="1943" d="M113 1231q0 59 57 59h461q59 0 59 -59q0 -68 -59 -68h-144v-583q0 -66 -79 -66q-84 0 -84 66v583h-154q-57 0 -57 68zM827 580v622q0 94 93 94q61 0 114 -59l297 -420l295 432q43 47 111 47q96 0 96 -98v-618q0 -66 -84 -66q-78 0 -78 66v483l-227 -346q-39 -51 -113 -51 q-80 0 -119 51l-223 342v-479q0 -66 -82 -66q-80 0 -80 66z" />
<glyph unicode="&#xe000;" horiz-adv-x="1010" d="M0 1010h1010v-1010h-1010v1010z" />
<glyph unicode="&#xfb01;" horiz-adv-x="1210" d="M856 1143q0 96 119 96q127 0 127 -96q0 -94 -127 -94q-119 0 -119 94zM895 72v792q0 78 82 78q94 0 94 -78v-792q0 -82 -90 -82q-86 0 -86 82zM123 72v927q0 301 422 301h110q70 0 70 -73q0 -72 -68 -72h-151q-205 0 -207 -156h360q66 0 66 -71q0 -78 -66 -78h-360v-778 q0 -82 -88 -82t-88 82z" />
<glyph unicode="&#xfb02;" horiz-adv-x="1196" d="M885 72v1165q0 80 90 80q92 0 92 -80v-1165q0 -82 -90 -82q-92 0 -92 82zM123 72v927q0 301 422 301h110q70 0 70 -73q0 -72 -68 -72h-151q-205 0 -207 -156h360q66 0 66 -71q0 -78 -66 -78h-360v-778q0 -82 -88 -82t-88 82z" />
<glyph unicode="&#xfb03;" horiz-adv-x="1964" d="M1609 1143q0 96 119 96q127 0 127 -96q0 -94 -127 -94q-119 0 -119 94zM1648 72v792q0 78 82 78q94 0 94 -78v-792q0 -82 -90 -82q-86 0 -86 82zM877 72v927q0 301 422 301h110q70 0 70 -73q0 -72 -68 -72h-151q-205 0 -207 -156h360q66 0 66 -71q0 -78 -66 -78h-360 v-778q0 -82 -88 -82t-88 82zM123 72v927q0 301 422 301h110q70 0 70 -73q0 -72 -68 -72h-151q-205 0 -207 -156h360q66 0 66 -71q0 -78 -66 -78h-360v-778q0 -82 -88 -82t-88 82z" />
<glyph unicode="&#xfb04;" horiz-adv-x="1949" d="M1638 72v1165q0 80 90 80q92 0 92 -80v-1165q0 -82 -90 -82q-92 0 -92 82zM877 72v927q0 301 422 301h110q70 0 70 -73q0 -72 -68 -72h-151q-205 0 -207 -156h360q66 0 66 -71q0 -78 -66 -78h-360v-778q0 -82 -88 -82t-88 82zM123 72v927q0 301 422 301h110q70 0 70 -73 q0 -72 -68 -72h-151q-205 0 -207 -156h360q66 0 66 -71q0 -78 -66 -78h-360v-778q0 -82 -88 -82t-88 82z" />
</font>
</defs>
</svg>
